<svg width="38" height="38" viewBox="0 0 38 38" fill="none" xmlns="http://www.w3.org/2000/svg">
<path d="M25.0437 12.0875C17.897 12.0875 12.0875 17.897 12.0875 25.0437C12.0875 29.2517 14.1499 33.2103 17.6024 35.6429L18.4787 36.2624H3.28628C2.4326 36.2624 1.73757 35.5674 1.73757 34.7137V32.2962C1.73757 31.4425 2.4326 30.7475 3.28628 30.7475H9.33002C9.80596 30.7475 10.1988 30.3547 10.1988 29.8787C10.1988 29.4028 9.80596 29.0099 9.33002 29.0099H6.91252C6.05885 29.0099 5.36382 28.3149 5.36382 27.4612V25.0437C5.36382 24.1901 6.05885 23.495 6.91252 23.495H9.33002C9.80596 23.495 10.1988 23.1022 10.1988 22.6262C10.1988 22.1503 9.80596 21.7575 9.33002 21.7575H4.49503C3.64135 21.7575 2.94632 21.0624 2.94632 20.2087V17.7913C2.94632 16.9376 3.64135 16.2425 4.49503 16.2425H11.7475C12.2235 16.2425 12.6163 15.8497 12.6163 15.3738C12.6163 14.8978 12.2235 14.505 11.7475 14.505H6.91252C6.05885 14.505 5.36382 13.8099 5.36382 12.9563V10.5388C5.36382 9.68509 6.05885 8.99006 6.91252 8.99006H20.2087C22.0219 8.99006 23.495 7.5169 23.495 5.70378V3.28628C23.495 1.47316 22.0219 0 20.2087 0H3.28628C1.47316 0 0 1.47316 0 3.28628V5.70378C0 7.33559 1.20119 8.99006 3.49781 8.99006H3.98131L3.82266 9.44334C3.70179 9.79841 3.6338 10.161 3.6338 10.5388C3.6338 10.9694 3.6338 11.332 3.6338 11.6493C3.62624 13.2207 3.62624 13.5455 3.86799 14.165L4.01153 14.5201L3.64135 14.6183C2.21352 15.0036 1.2163 16.3105 1.2163 17.7913V20.2087C1.2163 21.6895 2.21352 22.9889 3.64135 23.3817L4.01153 23.4799L3.86799 23.835C3.71689 24.2203 3.6338 24.6282 3.6338 25.0437C3.6338 25.5046 3.6338 25.8899 3.6338 26.2223C3.62624 27.6803 3.62624 27.9825 3.82266 28.5567L3.98131 29.0099H3.49781C1.20119 29.0099 0 30.6644 0 32.2962V34.7137C0 36.5268 1.47316 38 3.28628 38H25.0437C32.1905 38 38 32.1905 38 25.0437C38 17.897 32.1905 12.0875 25.0437 12.0875ZM3.28628 7.25249C2.4326 7.25249 1.73757 6.55746 1.73757 5.70378V3.28628C1.73757 2.4326 2.4326 1.73757 3.28628 1.73757H20.2087C21.0624 1.73757 21.7575 2.4326 21.7575 3.28628V5.70378C21.7575 6.55746 21.0624 7.25249 20.2087 7.25249H3.28628ZM25.0437 36.2624C18.8565 36.2624 13.825 31.231 13.825 25.0437C13.825 18.8565 18.8565 13.825 25.0437 13.825C31.231 13.825 36.2624 18.8565 36.2624 25.0437C36.2624 31.231 31.231 36.2624 25.0437 36.2624Z" fill="#00B4E3"/>
<path d="M25.6481 25.9125C27.7936 25.9125 29.5388 24.1674 29.5388 22.0219C29.5388 19.8763 27.7936 18.1312 25.6481 18.1312H21.4175C20.9416 18.1312 20.5487 18.5241 20.5487 19V31.0875C20.5487 31.5634 20.9416 31.9563 21.4175 31.9563C21.8934 31.9563 22.2863 31.5634 22.2863 31.0875V29.5388H25.0437C25.5197 29.5388 25.9125 29.1459 25.9125 28.67C25.9125 28.194 25.5197 27.8012 25.0437 27.8012H22.2863V25.9125H25.6481ZM22.2863 19.8688H25.6481C26.8342 19.8688 27.8012 20.8358 27.8012 22.0219C27.8012 23.208 26.8342 24.1749 25.6481 24.1749H22.2863V19.8688Z" fill="#00B4E3"/>
</svg>
