<svg width="38" height="36" viewBox="0 0 38 36" fill="none" xmlns="http://www.w3.org/2000/svg">
<path d="M5.38773 18.16C4.96287 18.16 4.61806 18.5048 4.61806 18.9297C4.61806 19.3545 4.96287 19.6994 5.38773 19.6994C5.81259 19.6994 6.15741 19.3545 6.15741 18.9297C6.15741 18.5048 5.81259 18.16 5.38773 18.16Z" fill="#00B4E3"/>
<path d="M38 20.8539C38 19.7671 37.4965 18.7961 36.7109 18.1607C37.7118 17.3523 38.1502 16.1011 37.953 14.89C37.6852 13.2438 36.1545 12.0026 34.3925 12.0026C33.5431 12.0026 27.9638 12.0026 27.0607 12.0026L27.2888 11.3178C28.5933 7.4054 27.3819 3.22482 24.5107 0.779024C22.9071 -0.604391 20.1712 -0.143124 19.3308 2.14566C19.2722 2.30514 19.2682 2.47955 19.3191 2.64172C19.9585 4.67535 19.9675 6.04276 19.3504 7.36145C18.7105 8.72908 17.3337 10.1651 14.747 12.1631C14.1261 12.6426 13.5833 12.9357 13.0585 13.2191C12.2317 13.6656 11.4467 14.0896 10.6352 15.0812H9.23611V14.3115C9.23611 13.8865 8.89153 13.5419 8.46644 13.5419H0.769676C0.344584 13.5419 0 13.8865 0 14.3115V34.3231C0 34.7482 0.344584 35.0928 0.769676 35.0928H8.46644C8.89153 35.0928 9.23611 34.7482 9.23611 34.3231V32.0141H12.1457C14.3834 34.0018 17.2555 35.0928 20.2682 35.0928C22.0447 35.0928 27.9643 35.0928 29.9184 35.0928C31.8329 35.0928 33.3819 33.544 33.3819 31.6293C33.3819 30.9178 33.166 30.2558 32.7967 29.7051H32.9971C34.9116 29.7051 36.4606 28.1562 36.4606 26.2415C36.4606 25.4377 36.1846 24.6975 35.7235 24.1091C37.0387 23.6306 38 22.3644 38 20.8539ZM7.69676 33.5535H1.53935V15.0813H7.69676V33.5535ZM34.5365 22.7781C33.7879 22.7781 27.937 22.7781 27.1476 22.7781C26.7226 22.7781 26.3779 23.1226 26.3779 23.5477C26.3779 23.9728 26.7226 24.3174 27.1476 24.3174H32.9971C34.0581 24.3174 34.9213 25.1806 34.9213 26.2416C34.9213 27.3052 34.061 28.1658 32.9971 28.1658C30.8382 28.1658 28.9104 28.1658 27.1476 28.1658C26.7226 28.1658 26.3779 28.5104 26.3779 28.9355C26.3779 29.3606 26.7226 29.7051 27.1476 29.7051H29.9184C30.9794 29.7051 31.8426 30.5683 31.8426 31.6293C31.8426 32.6929 30.9823 33.5535 29.9184 33.5535C27.9041 33.5535 21.9193 33.5535 20.2682 33.5535C17.5439 33.5535 14.9517 32.5337 12.9691 30.682C12.8265 30.5489 12.6387 30.4748 12.4437 30.4748H9.23611V16.6206H11.0121C11.2568 16.6206 11.4868 16.5044 11.6319 16.3073C12.3262 15.3643 12.9402 15.0327 13.7902 14.5737C14.3422 14.2755 14.968 13.9376 15.6882 13.3815C20.9578 9.31104 22.1637 6.81721 20.8726 2.45815C21.383 1.47689 22.656 1.2122 23.56 1.99296C26.0132 4.13743 26.9037 7.60659 25.8286 10.8312L25.4383 12.0027H24.4537C24.0287 12.0027 23.684 12.3473 23.684 12.7724C23.684 13.1975 24.0287 13.5421 24.4537 13.5421C25.6357 13.5421 33.1783 13.5421 34.3925 13.5421C35.4082 13.5421 36.2857 14.2279 36.4337 15.1374C36.6343 16.3688 35.688 17.3905 34.5365 17.3905C33.748 17.3905 27.8986 17.3905 27.1476 17.3905C26.7226 17.3905 26.378 17.7351 26.378 18.1602C26.378 18.5852 26.7226 18.9298 27.1476 18.9298C27.8962 18.9298 33.7471 18.9298 34.5365 18.9298C35.5975 18.9298 36.4607 19.793 36.4607 20.854C36.4606 21.9175 35.6004 22.7781 34.5365 22.7781Z" fill="#00B4E3"/>
<path d="M5.38773 21.2387C4.96264 21.2387 4.61806 21.5833 4.61806 22.0084V29.7051C4.61806 30.1302 4.96264 30.4748 5.38773 30.4748C5.81282 30.4748 6.15741 30.1302 6.15741 29.7051V22.0084C6.15741 21.5833 5.81282 21.2387 5.38773 21.2387Z" fill="#00B4E3"/>
</svg>
