<svg width="38" height="38" viewBox="0 0 38 38" fill="none" xmlns="http://www.w3.org/2000/svg">
<path d="M20.539 19.0354L22.0781 20.5744L20.5744 22.0781L19.0354 20.539L19 20.5037L18.9646 20.539L17.4256 22.0781L15.9219 20.5744L17.461 19.0354L17.4963 19L17.461 18.9646L11.1724 12.6761L12.6761 11.1724L18.9646 17.461L19 17.4963L19.0354 17.461L25.3502 11.1462L26.8538 12.6498L20.539 18.9646L20.5037 19L20.539 19.0354ZM0.05 19C0.05 8.55097 8.55097 0.05 19 0.05C29.449 0.05 37.95 8.55097 37.95 19C37.95 29.449 29.449 37.95 19 37.95C8.55097 37.95 0.05 29.449 0.05 19ZM2.17656 19C2.17656 28.2765 9.72347 35.8234 19 35.8234C28.2765 35.8234 35.8234 28.2765 35.8234 19C35.8234 9.72347 28.2765 2.17656 19 2.17656C9.72347 2.17656 2.17656 9.72347 2.17656 19ZM4.50313 19C4.50313 11.0064 11.0064 4.50313 19 4.50313C26.9936 4.50313 33.4969 11.0064 33.4969 19C33.4969 26.9936 26.9936 33.4969 19 33.4969C11.0064 33.4969 4.50313 26.9936 4.50313 19ZM6.62969 19C6.62969 25.8211 12.1789 31.3703 19 31.3703C25.8211 31.3703 31.3703 25.8211 31.3703 19C31.3703 12.1789 25.8211 6.62969 19 6.62969C12.1789 6.62969 6.62969 12.1789 6.62969 19ZM20.0633 8.95625V11.0828H17.9367V8.95625H20.0633ZM20.0633 26.9172V29.0438H17.9367V26.9172H20.0633ZM8.95625 17.9367H11.0828V20.0633H8.95625V17.9367ZM26.9172 17.9367H29.0438V20.0633H26.9172V17.9367Z" fill="#00B4E3" stroke="white" stroke-width="0.1"/>
</svg>
