<svg width="38" height="38" viewBox="0 0 38 38" fill="none" xmlns="http://www.w3.org/2000/svg">
<path d="M29.3609 14.7701C30.0809 14.7701 30.7562 14.488 31.2684 13.9832C32.3223 12.929 32.3223 11.2215 31.2684 10.1672L27.8172 6.70763C26.8004 5.69053 25.0191 5.69053 24.0023 6.70763C22.9484 7.76184 22.9484 9.46938 24.0023 10.5236L27.4535 13.9832C27.9656 14.488 28.641 14.7701 29.3609 14.7701ZM25.227 7.92517C25.4125 7.73957 25.65 7.64306 25.9098 7.64306C26.1695 7.64306 26.4145 7.747 26.5926 7.92517L30.0437 11.3848C30.4223 11.7634 30.4223 12.3796 30.0437 12.7582C29.6801 13.122 29.0418 13.122 28.6707 12.7582L25.2195 9.29862C24.8484 8.92 24.8484 8.3038 25.227 7.92517Z" fill="#00B4E3"/>
<path d="M37.1391 10.8502L27.127 0.835206C26.0137 -0.278402 24.0691 -0.278402 22.9559 0.835206L14.6805 9.12045C14.1238 9.67725 13.8195 10.4197 13.8195 11.2066C13.8195 11.9936 14.1238 12.736 14.6805 13.2928L22.9559 21.578L22.4512 22.0903C22.2211 22.3204 21.9168 22.4466 21.5902 22.4466C21.2637 22.4466 20.9594 22.3204 20.7293 22.0903L18.3172 19.67C17.9758 19.3359 17.434 19.3359 17.0926 19.67L12.3426 24.4214C12.0086 24.7555 12.0086 25.3049 12.3426 25.6464C12.5133 25.8171 12.7285 25.8988 12.9512 25.8988C13.1738 25.8988 13.3965 25.8171 13.5598 25.6464L17.7012 21.5038L18.6437 22.4466L13.4559 27.6286H11.2219C10.7469 27.6286 10.3609 28.0147 10.3609 28.4898V30.2196H8.63164C8.15664 30.2196 7.7707 30.6056 7.7707 31.0808V32.8106H6.04883C5.57383 32.8106 5.18789 33.1966 5.18789 33.6718V35.9064L4.83164 36.2628H1.7293V33.1818L16.1574 18.7346C16.4914 18.4005 16.4914 17.8511 16.1574 17.5096L15.9051 17.2572C15.675 17.0271 15.5488 16.7227 15.5488 16.396C15.5488 15.9209 15.1629 15.5348 14.6879 15.5348C14.2129 15.5348 13.827 15.9209 13.827 16.4034C13.827 17.0196 14.0125 17.6061 14.3613 18.0961L0.252344 32.2092C0.0890625 32.3726 0 32.5879 0 32.818V37.1388C0 37.6139 0.385938 38 0.860938 38H5.18047C5.41055 38 5.6332 37.9109 5.78906 37.7476L6.65 36.8864C6.81328 36.7231 6.90234 36.5078 6.90234 36.2776V34.5478H8.63164C9.10664 34.5478 9.49258 34.1618 9.49258 33.6866V31.9568H11.2219C11.6969 31.9568 12.0828 31.5708 12.0828 31.0956V29.3658H13.8121C14.0422 29.3658 14.2648 29.2767 14.4207 29.1134L19.8906 23.6419C20.3805 23.9908 20.9668 24.1764 21.5828 24.1764C22.3695 24.1764 23.1043 23.8646 23.6609 23.3152L24.7891 22.1942C25.123 21.8601 25.123 21.3107 24.7891 20.9692L15.9051 12.0678C15.675 11.8376 15.5488 11.5333 15.5488 11.2066C15.5488 10.8799 15.675 10.5756 15.9051 10.3454L24.1805 2.05275C24.6406 1.59246 25.4422 1.59246 25.9098 2.05275L35.9145 12.0678C36.1445 12.2979 36.2707 12.6023 36.2707 12.929C36.2707 13.2556 36.1445 13.56 35.9145 13.7902L27.6391 22.0903C27.409 22.3204 27.1047 22.4466 26.7781 22.4466C26.3031 22.4466 25.9172 22.8327 25.9172 23.3078C25.9172 23.7829 26.3031 24.169 26.7781 24.169C27.5648 24.169 28.307 23.8646 28.8637 23.3078L37.1391 15.0226C37.6957 14.4658 38 13.7234 38 12.9364C38 12.1495 37.6957 11.4071 37.1391 10.8502Z" fill="#00B4E3"/>
</svg>
